<svg width="64" height="64" viewBox="0 0 64 64" fill="none" xmlns="http://www.w3.org/2000/svg">
  <rect width="64" height="64" rx="18" fill="#1F1A17"/>
  <path d="M18 22.5C18 19.4624 20.4624 17 23.5 17H40.5C43.5376 17 46 19.4624 46 22.5V42.5C46 45.5376 43.5376 48 40.5 48H23.5C20.4624 48 18 45.5376 18 42.5V22.5Z" fill="#FFF8EE"/>
  <path d="M24 26.5C24 24.567 25.567 23 27.5 23H36.5C38.433 23 40 24.567 40 26.5C40 28.433 38.433 30 36.5 30H27.5C25.567 30 24 28.433 24 26.5Z" fill="#A94F1D"/>
  <path d="M24 37C24 33.6863 26.6863 31 30 31H34C37.3137 31 40 33.6863 40 37V41H24V37Z" fill="#315B4A"/>
  <circle cx="25.5" cy="46.5" r="2.5" fill="#A94F1D"/>
  <circle cx="38.5" cy="46.5" r="2.5" fill="#A94F1D"/>
</svg>
